<?xml version="1.0" encoding="UTF-8" standalone="no"?>
<svg width="119px" height="73px" viewBox="0 0 119 73" version="1.1" xmlns="http://www.w3.org/2000/svg" xmlns:xlink="http://www.w3.org/1999/xlink">
    <!-- Generator: Sketch 3.8.3 (29802) - http://www.bohemiancoding.com/sketch -->
    <title>yelster_logo</title>
    <desc>Created with Sketch.</desc>
    <defs>
        <linearGradient x1="60.2064272%" y1="2.21784606%" x2="39.6551268%" y2="98.4728119%" id="linearGradient-1">
            <stop stop-color="#FFD000" offset="0%"></stop>
            <stop stop-color="#FCBF00" offset="57.34%"></stop>
            <stop stop-color="#FAB600" offset="100%"></stop>
        </linearGradient>
        <linearGradient x1="59.7058402%" y1="4.59736107%" x2="39.9386815%" y2="97.2139398%" id="linearGradient-2">
            <stop stop-color="#C35C9F" offset="0%"></stop>
            <stop stop-color="#9F4091" offset="100%"></stop>
        </linearGradient>
        <linearGradient x1="59.1399638%" y1="7.63025872%" x2="39.7448026%" y2="97.6906074%" id="linearGradient-3">
            <stop stop-color="#FFD000" offset="0%"></stop>
            <stop stop-color="#FCBF00" offset="57.34%"></stop>
            <stop stop-color="#FAB600" offset="100%"></stop>
        </linearGradient>
        <linearGradient x1="59.7354219%" y1="4.5972973%" x2="40.3562685%" y2="94.7085023%" id="linearGradient-4">
            <stop stop-color="#C35C9F" offset="0%"></stop>
            <stop stop-color="#9F4091" offset="100%"></stop>
        </linearGradient>
    </defs>
    <g id="Page-1" stroke="none" stroke-width="1" fill="none" fill-rule="evenodd">
        <g id="Desktop-HD" transform="translate(-196.000000, -7346.000000)">
            <g id="yelster_logo" transform="translate(196.000000, 7346.000000)">
                <g id="Ebene_1">
                    <g id="Group">
                        <g transform="translate(34.998077, 57.122502)" id="Shape" fill="#4A4A4A">
                            <path d="M0.40757254,13.6311017 C0.620219082,13.666692 0.824005352,13.6844872 1.02779162,13.6844872 C1.90495861,13.6844872 2.33025169,13.2040176 2.57833933,12.3676445 L1.9403997,3.06966716 L4.42127603,3.06966716 L4.4301363,9.50262181 L4.46557739,9.50262181 L7.02619617,3.06966716 L9.40074923,3.06966716 L5.33388411,11.7448135 C3.81877749,14.956842 3.19855841,15.4106189 1.0012108,15.4106189 L0.0354410904,15.4106189 L0.40757254,13.6311017 L0.40757254,13.6311017 Z"></path>
                            <path d="M11.2702667,8.08790564 L11.1107818,8.82640527 C10.8715545,9.92080835 10.9424367,10.9885187 11.8196036,10.9885187 C12.6081679,10.9885187 13.0600418,10.3834828 13.4410335,9.24459181 L15.5763592,9.24459181 C15.0447429,11.4067052 13.7511431,12.6167769 11.5183544,12.6167769 C8.08056861,12.6167769 8.5058617,9.94750111 8.99317669,7.63412876 C9.52479305,5.15170227 10.4905628,2.82943234 13.6891212,2.82943234 C16.4623865,2.82943234 16.6838933,4.69792539 16.0813948,7.55405048 L15.9750715,8.09680323 L11.2702667,8.09680323 L11.2702667,8.08790564 Z M13.9903704,6.66429189 C14.2473183,5.24957572 14.2295978,4.45769057 13.2461075,4.45769057 C12.2980584,4.45769057 11.8196036,5.44532261 11.6423982,6.30838845 L11.5537955,6.66429189 L13.9903704,6.66429189 L13.9903704,6.66429189 Z"></path>
                            <polygon points="18.9964245 0.0266927579 21.3709775 0.0266927579 18.7483368 12.3676445 16.3737838 12.3676445"></polygon>
                            <path d="M22.8063417,9.32467009 L22.75318,9.6360856 C22.5848349,10.4457659 22.8860841,10.9885187 23.6923689,10.9885187 C24.4189113,10.9885187 24.9682482,10.6237176 25.1365934,9.87632042 C25.2606372,9.28018216 24.9150866,8.99545941 24.4986537,8.82640527 L22.948106,8.22136943 C21.7519692,7.74979737 21.255794,6.94011705 21.5216021,5.63217191 C21.8494322,4.09288954 23.0632896,2.82943234 25.5175851,2.82943234 C27.6617711,2.82943234 28.4769161,3.79926921 28.1313655,5.48091295 L28.0427628,5.85461156 L25.9074371,5.85461156 C26.0137604,5.38303951 26.0137604,5.03603365 25.8897165,4.80469642 C25.7833933,4.58225677 25.5441659,4.45769057 25.1454536,4.45769057 C24.5429551,4.45769057 23.9581771,4.80469642 23.825273,5.46311778 C23.7189498,5.91689466 23.8961552,6.29059328 24.6315578,6.55752085 L25.9517384,7.0379905 C27.3428012,7.53625531 27.723793,8.3014477 27.431404,9.6983687 C27.0238314,11.64694 25.3669605,12.6167769 23.3733991,12.6167769 C20.7064571,12.6167769 20.2014215,11.4422955 20.5912735,9.66277835 L20.6621557,9.32467009 L22.8063417,9.32467009 L22.8063417,9.32467009 Z"></path>
                            <path d="M31.1172774,0.409288954 L33.4918304,0.409288954 L32.924773,3.06966716 L34.2981152,3.06966716 L33.9525646,4.69792539 L32.5703621,4.69792539 L31.5248499,9.73395904 C31.3742253,10.4546635 31.462828,10.7482838 32.1539293,10.7482838 C32.339995,10.7482838 32.5260607,10.7304887 32.6855456,10.7126935 L32.339995,12.3765421 C31.7995184,12.4299276 31.3210636,12.4833131 30.7717267,12.4833131 C28.9110695,12.4833131 28.6895627,11.9138676 29.0882749,10.0275794 L30.2046693,4.69792539 L29.0085325,4.69792539 L29.3452229,3.06966716 L30.5502199,3.06966716 L31.1172774,0.409288954 L31.1172774,0.409288954 Z"></path>
                            <path d="M36.1144711,8.08790564 L35.9549862,8.82640527 C35.7157589,9.92080835 35.7777808,10.9885187 36.6549477,10.9885187 C37.4523723,10.9885187 37.8953859,10.3834828 38.2763776,9.24459181 L40.4117033,9.24459181 C39.880087,11.4067052 38.5864872,12.6167769 36.3536985,12.6167769 C32.9070524,12.6167769 33.3412058,9.94750111 33.8196605,7.63412876 C34.3601371,5.15170227 35.3170466,2.82943234 38.5244653,2.82943234 C41.2977306,2.82943234 41.5192374,4.69792539 40.9167389,7.55405048 L40.8192759,8.09680323 L36.1144711,8.09680323 L36.1144711,8.08790564 Z M38.8257145,6.66429189 C39.0826624,5.24957572 39.0649419,4.45769057 38.0903119,4.45769057 C37.1422627,4.45769057 36.663808,5.44532261 36.4866026,6.30838845 L36.3979998,6.66429189 L38.8257145,6.66429189 L38.8257145,6.66429189 Z"></path>
                            <path d="M43.1052262,3.06966716 L45.3823163,3.06966716 L45.1165081,4.31532919 L45.1519492,4.31532919 C45.8164696,3.41667301 46.6138942,2.82943234 47.5973844,2.82943234 C47.7302885,2.82943234 47.8897734,2.84722751 48.0226775,2.85612509 L47.5442228,5.14280469 C47.3049954,5.12500951 47.0391872,5.10721434 46.7999599,5.10721434 C45.9759545,5.10721434 44.9570232,5.54319605 44.7000753,6.78885809 L43.5127987,12.3676445 L41.1382457,12.3676445 L43.1052262,3.06966716 L43.1052262,3.06966716 Z"></path>
                            <path d="M52.231307,10.8550549 L52.1958659,10.8550549 C51.6996906,11.90497 50.6630387,12.5811866 49.5820855,12.5811866 C47.5619433,12.5811866 46.9948859,10.9529283 47.6859871,7.77649013 C48.332787,4.61784711 49.5909457,2.98958888 51.6110879,2.98958888 C52.7452028,2.98958888 53.400863,3.6124199 53.4185835,4.58225677 L53.4540246,4.58225677 L54.4197943,0.0355903438 L55.4475859,0.0355903438 L52.8338055,12.3765421 L51.9034769,12.3765421 L52.231307,10.8550549 L52.231307,10.8550549 Z M49.9276361,11.7092231 C50.9820085,11.7092231 52.0541015,11.175368 52.7629233,7.76759254 C53.4717451,4.38650988 52.6477398,3.84375714 51.5933674,3.84375714 C50.5655757,3.84375714 49.4757622,4.37761229 48.7758007,7.76759254 C48.0581186,11.175368 48.8998445,11.7092231 49.9276361,11.7092231 L49.9276361,11.7092231 Z"></path>
                            <path d="M56.7323255,3.18533577 L57.7601171,3.18533577 L55.8108571,12.3676445 L54.7742052,12.3676445 L56.7323255,3.18533577 L56.7323255,3.18533577 Z M57.4057062,0.0266927579 L58.4423581,0.0266927579 L58.0613664,1.78841478 L57.0335747,1.78841478 L57.4057062,0.0266927579 L57.4057062,0.0266927579 Z"></path>
                            <path d="M64.5470859,3.18533577 L65.4774145,3.18533577 L63.6699189,11.7092231 C63.1383026,14.2539327 61.9244452,15.5529803 59.868862,15.5529803 C58.0968074,15.5529803 57.3525445,14.6276313 57.627213,13.301891 L58.6638649,13.301891 C58.4777992,14.1649569 59.1777607,14.6899144 60.099229,14.6899144 C61.3485275,14.6899144 62.1902534,13.8090534 62.5446643,12.1807952 L62.8459136,10.7304887 L62.8193327,10.7304887 C62.2522753,11.8515845 61.2865056,12.3676445 60.3384564,12.3676445 C58.9296731,12.3676445 57.7069554,11.433398 58.4955197,7.76759254 C59.1511799,4.60894953 60.4093386,2.9806913 62.4206205,2.9806913 C63.4218313,2.9806913 64.1040723,3.56793197 64.2103955,4.60894953 L64.2458366,4.60894953 L64.5470859,3.18533577 L64.5470859,3.18533577 Z M60.7460289,11.5045786 C61.9687466,11.5045786 62.8724944,10.6059225 63.5015737,7.6697191 C64.1129325,4.74241332 63.5901765,3.85265472 62.3674588,3.85265472 C61.1536015,3.85265472 60.2321331,4.7513109 59.6207743,7.6697191 C58.991695,10.6059225 59.5233113,11.5045786 60.7460289,11.5045786 L60.7460289,11.5045786 Z"></path>
                            <path d="M67.5507183,3.18533577 L68.5785099,3.18533577 L66.62925,12.3676445 L65.6014583,12.3676445 L67.5507183,3.18533577 L67.5507183,3.18533577 Z M68.2152388,0.0266927579 L69.2518906,0.0266927579 L68.8708989,1.78841478 L67.834247,1.78841478 L68.2152388,0.0266927579 L68.2152388,0.0266927579 Z"></path>
                            <path d="M70.8290192,4.0572992 L69.5708605,4.0572992 L69.7657865,3.19423336 L71.0150849,3.19423336 L71.5467012,0.649523775 L72.5833531,0.649523775 L72.0517368,3.19423336 L73.6643064,3.19423336 L73.4782407,4.0572992 L71.8656711,4.0572992 L70.465748,10.6415128 C70.3062631,11.3711149 70.563211,11.6113497 71.2365917,11.6113497 C71.4492383,11.6113497 71.6707451,11.5757593 71.9099724,11.5045786 L71.7150464,12.3676445 C71.5821423,12.4388252 71.3251944,12.4744155 70.9707835,12.4744155 C69.5797207,12.4744155 69.1189866,12.0918193 69.3759345,10.8639525 L70.8290192,4.0572992 L70.8290192,4.0572992 Z"></path>
                            <path d="M74.0187173,5.91689466 C74.4174296,4.03060644 75.5338239,2.9806913 77.4653633,2.9806913 C79.3526014,2.9806913 79.8310561,3.96832334 79.5298069,5.41862985 L78.395692,10.8461573 C78.2716482,11.3622173 78.395692,11.6024521 78.7501029,11.6024521 L79.0513521,11.6024521 L78.9007275,12.3587469 C78.688081,12.4299276 78.5374563,12.4655179 78.395692,12.4655179 C77.5894072,12.4655179 77.1020922,12.269771 77.3058784,11.3266269 L77.3767606,11.0152114 L77.3413195,11.0152114 C76.6679388,12.2252831 75.6578677,12.5633914 74.6389364,12.5633914 C73.0440873,12.5633914 72.5390518,11.5579642 72.8668819,9.97419386 C73.1238298,8.76412217 73.8858132,7.7942853 75.2680157,7.42948428 L77.3147387,6.87783395 C78.0944427,6.67318947 78.2805084,6.49523775 78.5108755,5.42752744 C78.7589631,4.25304609 78.200766,3.83485955 77.2704373,3.83485955 C76.0477197,3.83485955 75.3566185,4.58225677 75.0642295,5.90799708 L74.0187173,5.90799708 L74.0187173,5.91689466 Z M78.1298838,7.18035187 L78.0944427,7.18035187 C77.9260975,7.49176738 77.3058784,7.67861669 76.8628648,7.78538772 L75.9679773,8.00782737 C74.8693035,8.28365253 74.2313638,8.81750769 73.9921365,9.91191076 C73.7617694,10.9885187 74.1604817,11.7092231 75.0553692,11.7092231 C76.3135279,11.7092231 77.3767606,10.766079 77.7223113,9.12002561 L78.1298838,7.18035187 L78.1298838,7.18035187 Z"></path>
                            <polygon points="82.8701296 0.0266927579 83.8979213 0.0266927579 81.2752806 12.3676445 80.2386287 12.3676445"></polygon>
                        </g>
                        <g id="Shape">
                            <path d="M29.8945598,41.302594 C29.4072448,43.1354967 27.5465875,44.612496 25.7213714,44.612496 L2.59605987,44.612496 C0.779703989,44.612496 -0.301249268,43.1265992 0.186065725,41.302594 L6.06042646,19.2632736 C6.54774145,17.4303709 8.41725897,15.944474 10.2424751,15.944474 L33.3589263,15.944474 C35.1841425,15.944474 36.2650958,17.4303709 35.7689205,19.2632736 L29.8945598,41.302594 L29.8945598,41.302594 Z" fill="url(#linearGradient-1)"></path>
                            <path d="M63.3775299,46.116188 C62.8902149,47.9490908 61.0118371,49.42609 59.1954812,49.42609 L36.07903,49.42609 C34.2538139,49.42609 33.1728606,47.9490908 33.6601756,46.116188 L39.5345363,24.0768676 C40.0218513,22.2439649 41.9090894,20.7669656 43.7254453,20.7669656 L66.8330362,20.7669656 C68.6582524,20.7669656 69.7303454,22.2528625 69.2518906,24.0768676 L63.3775299,46.116188 L63.3775299,46.116188 Z" fill="url(#linearGradient-2)"></path>
                            <path d="M24.3214483,62.1763307 C23.8341333,64.0092334 21.9557555,65.4951303 20.1393996,65.4951303 L9.82604231,65.4951303 C8.00082616,65.4951303 6.9198729,64.0092334 7.40718789,62.1763307 L9.85262313,52.994022 C10.3487984,51.1611193 12.2183159,49.6752224 14.0435321,49.6752224 L24.3568894,49.6752224 C26.1821055,49.6752224 27.2630588,51.1611193 26.7668835,52.994022 L24.3214483,62.1763307 L24.3214483,62.1763307 Z" fill="url(#linearGradient-3)"></path>
                            <path d="M72.3529861,12.4922107 C71.8656711,14.3251134 69.9872933,15.8021127 68.1709374,15.8021127 L57.8575801,15.8021127 C56.0323639,15.8021127 54.9514107,14.3251134 55.4387257,12.4922107 L57.8930212,3.30990198 C58.3803362,1.47699927 60.258714,0 62.0750698,0 L72.3884271,0 C74.2136433,0 75.2945966,1.47699927 74.8072816,3.30990198 L72.3529861,12.4922107 L72.3529861,12.4922107 Z" fill="url(#linearGradient-4)"></path>
                        </g>
                    </g>
                </g>
            </g>
        </g>
    </g>
</svg>